<svg xmlns="http://www.w3.org/2000/svg" width="256" height="256" viewBox="0 0 100 100"><rect width="100" height="100" rx="20" fill="#726f7b"></rect>
  <link rel="icon" type="image/svg+xml" href="logo-white.svg" /><path fill="#fff" d="M26.02 77.14L9.04 77.14L8.01 72.24L12.28 70.82L27.60 22.55L35.74 22.55L51.30 70.82L54.94 72.24L54.15 77.14L36.45 77.14L36.45 72.48L42.77 70.82L39.22 58.97L22.63 58.97L19.07 71.13L26.02 72.40L26.02 77.14ZM30.92 31.00L24.60 52.41L36.85 52.41L30.92 31.00ZM73.82 77.45L73.82 77.45Q69.87 77.45 66.08 76.58Q62.28 75.71 59.20 74.37L59.20 74.37L59.52 60.78L65.05 61.02L66.47 69.32Q67.74 69.79 69.71 70.22Q71.69 70.66 73.58 70.66L73.58 70.66Q76.27 70.66 78.60 69.83Q80.93 69.00 82.43 67.26Q83.93 65.52 83.93 62.76L83.93 62.76Q83.93 60.70 83.10 59.12Q82.27 57.54 80.45 56.20Q78.64 54.86 75.64 53.44L75.64 53.44Q72.48 51.94 69.55 50.51Q66.63 49.09 64.26 47.27Q61.89 45.46 60.47 42.93Q59.05 40.40 59.05 36.69L59.05 36.69Q59.05 32.26 61.42 29.10Q63.79 25.94 67.70 24.25Q71.61 22.55 76.27 22.55L76.27 22.55Q79.98 22.55 83.38 23.22Q86.77 23.89 89.78 24.84L89.78 24.84L90.88 38.35L85.43 38.35L81.88 29.97Q80.61 29.58 79.11 29.42Q77.61 29.26 76.11 29.26L76.11 29.26Q73.50 29.26 71.49 30.09Q69.47 30.92 68.29 32.42Q67.10 33.92 67.10 36.06L67.10 36.06Q67.10 38.19 68.21 39.73Q69.32 41.27 71.17 42.38Q73.03 43.48 75.12 44.39Q77.22 45.30 79.27 46.25L79.27 46.25Q84.01 48.46 86.77 50.79Q89.54 53.12 90.76 55.81Q91.99 58.49 91.99 61.73L91.99 61.73Q91.99 65.76 90.49 68.68Q88.99 71.61 86.38 73.58Q83.77 75.56 80.53 76.50Q77.29 77.45 73.82 77.45Z"></path></svg>